<svg width="24" height="24" viewBox="0 0 24 24" fill="none" xmlns="http://www.w3.org/2000/svg">
<g clip-path="url(#clip0_401_335)">
<path fill-rule="evenodd" clip-rule="evenodd" d="M20.08 5.22829C20.1236 4.96361 20.0955 4.69207 19.9985 4.44197C19.9015 4.19187 19.7392 3.97236 19.5285 3.80631C19.3178 3.64025 19.0665 3.53374 18.8006 3.49786C18.5348 3.46197 18.2642 3.49804 18.017 3.60229L0.917018 10.8023C-0.274982 11.3043 -0.335982 13.0283 0.917018 13.5483C2.15774 14.0657 3.41654 14.5387 4.69102 14.9663C5.85902 15.3523 7.13302 15.7093 8.15402 15.8103C8.43302 16.1443 8.78402 16.4653 9.14202 16.7603C9.68902 17.2103 10.347 17.6733 11.027 18.1173C12.389 19.0073 13.9 19.8583 14.918 20.4123C16.135 21.0723 17.592 20.3123 17.81 18.9853L20.08 5.22829ZM2.83402 12.1643L17.958 5.79729L15.84 18.6373C14.841 18.0943 13.402 17.2813 12.12 16.4433C11.5292 16.0639 10.9587 15.6537 10.411 15.2143C10.2646 15.0947 10.1225 14.97 9.98502 14.8403L13.946 10.8803C14.1337 10.6928 14.2391 10.4384 14.2392 10.1731C14.2393 9.90788 14.134 9.65343 13.9465 9.46579C13.759 9.27815 13.5046 9.17268 13.2394 9.17259C12.9741 9.1725 12.7197 9.27778 12.532 9.46529L8.19502 13.8023C7.46102 13.7083 6.43902 13.4363 5.31702 13.0663C4.48171 12.788 3.65308 12.4873 2.83402 12.1643Z" fill="white"/>
</g>
<defs>
<clipPath id="clip0_401_335">
<rect width="24" height="24" fill="white"/>
</clipPath>
</defs>
</svg>
