<svg width="31" height="30" viewBox="0 0 31 30" fill="none" xmlns="http://www.w3.org/2000/svg">
<g clip-path="url(#clip0_84_1818)">
<path fill-rule="evenodd" clip-rule="evenodd" d="M25.9367 6.53537C25.993 6.20451 25.9567 5.86509 25.8314 5.55247C25.7061 5.23984 25.4964 4.96545 25.2243 4.75788C24.9522 4.55032 24.6275 4.41717 24.2841 4.37232C23.9408 4.32747 23.5912 4.37255 23.272 4.50287L1.18448 13.5029C-0.355186 14.1304 -0.433977 16.2854 1.18448 16.9354C2.78708 17.5822 4.41303 18.1734 6.05923 18.7079C7.5679 19.1904 9.21348 19.6366 10.5323 19.7629C10.8926 20.1804 11.346 20.5816 11.8084 20.9504C12.515 21.5129 13.3649 22.0916 14.2432 22.6466C16.0025 23.7591 17.9542 24.8229 19.2691 25.5154C20.8411 26.3404 22.723 25.3904 23.0046 23.7316L25.9367 6.53537ZM3.66061 15.2054L23.1958 7.24662L20.46 23.2966C19.1696 22.6179 17.3109 21.6016 15.655 20.5541C14.8918 20.0799 14.155 19.5671 13.4476 19.0179C13.2585 18.8684 13.0749 18.7125 12.8973 18.5504L18.0136 13.6004C18.256 13.366 18.3922 13.048 18.3923 12.7164C18.3924 12.3848 18.2565 12.0668 18.0143 11.8322C17.7721 11.5977 17.4435 11.4659 17.1009 11.4657C16.7582 11.4656 16.4296 11.5972 16.1872 11.8316L10.5852 17.2529C9.63715 17.1354 8.31707 16.7954 6.86781 16.3329C5.78888 15.985 4.71856 15.6091 3.66061 15.2054Z" fill="white"/>
</g>
<defs>
<clipPath id="clip0_84_1818">
<rect width="31" height="30" fill="white"/>
</clipPath>
</defs>
</svg>
